<svg preserveAspectRatio="none" width="100%" height="100%" overflow="visible" style="display: block;" viewBox="0 0 402 874" fill="none" xmlns="http://www.w3.org/2000/svg">
<g id="_grid" clip-path="url(#clip0_0_4)">
<path id="Vector" opacity="0.14" d="M402 0H0V874M0 37.2796H402M0 74.5592H402M0 111.839H402M0 149.118H402M0 186.398H402M0 223.678H402M0 260.957H402M0 298.237H402M0 335.517H402M0 372.796H402M0 410.076H402M0 447.355H402M0 484.635H402M0 521.915H402M0 559.194H402M0 596.474H402M0 633.754H402M0 671.033H402M0 708.313H402M0 745.592H402M0 782.872H402M0 820.152H402M0 857.431H402M37.1077 0V874M74.2154 0V874M111.323 0V874M148.431 0V874M185.538 0V874M222.646 0V874M259.754 0V874M296.862 0V874M333.969 0V874M371.077 0V874" stroke="var(--stroke-0, white)" stroke-width="0.6"/>
</g>
<defs>
<clipPath id="clip0_0_4">
<rect width="402" height="874" fill="white"/>
</clipPath>
</defs>
</svg>
